<?xml version="1.0" encoding="UTF-8"?>
<svg width="240px" height="50px" viewBox="0 0 185 24" version="1.1" xmlns="http://www.w3.org/2000/svg" xmlns:xlink="http://www.w3.org/1999/xlink">
    <title>EDP Logo</title>
    <defs>
        <path d="M0.00112894956,6.00206033 L0,18.0016652 L5.75933618,21.3274377 L16.1514298,15.3283126 L13.888902,14.0174893 L5.76452935,18.7087263 L2.26535019,16.6883582 L2.26568887,7.30881945 L12.6585727,1.30800096 L10.3933354,0 L0.00112894956,6.00206033 Z M4.63106399,8.67213894 L6.89641417,9.97968832 L15.0163839,5.29138659 L18.5156759,7.31164182 L18.5152244,16.6910677 L8.12200182,22.6915475 L10.3880294,24 L20.780123,17.9983912 L20.7809132,5.99799611 L15.021577,2.67256229 L4.63106399,8.67213894 Z M4.6307253,14.0198601 L6.89088232,15.3245871 C9.97404357,13.5385889 13.0649946,11.7625255 16.1506395,9.98093016 L16.1506395,9.98093016 L13.888902,8.67529999 L4.6307253,14.0198601 Z" id="path-1"></path>
    </defs>
    <g id="Page-1" stroke="none" stroke-width="1" fill="none" fill-rule="evenodd">
        <g id="Sales-RFP" transform="translate(-24.000000, -96.000000)">
            <g id="001" transform="translate(0.000000, 80.000000)">
                <g id="EDP-Logo" transform="translate(24.000000, 16.000000)">
                    <path d="M36.869219,18 L36.869219,17.0892496 L31.0033691,17.0892496 L31.0033691,12.581807 L36.0510873,12.581807 L36.0510873,11.6710567 L31.0033691,11.6710567 L31.0033691,7.33341501 L36.6994181,7.33341501 L36.6994181,6.42266462 L30,6.42266462 L30,18 L36.869219,18 Z M38.4283002,18 L40.944441,14.789219 L43.5532006,18 L44.741807,18 L41.5618989,14.063706 L44.3404594,10.4361409 L43.2290352,10.4361409 L40.9907504,13.3073201 L38.6598469,10.4361409 L37.4712404,10.4361409 L40.3732925,14.0482695 L37.316876,18 L38.4283002,18 Z M48.5391731,18.1234916 C49.1566309,18.1234916 49.9130169,17.9536907 50.4532925,17.5677795 L50.4532925,16.6415926 C49.8975804,17.0429403 49.2183767,17.2127412 48.6317917,17.2127412 C47.6901685,17.2127412 47.0109648,16.7496478 47.0109648,15.5919142 L47.0109648,11.3314548 L50.3298009,11.3314548 L50.3298009,10.4361409 L47.0109648,10.4361409 L47.0109648,7.96630934 L46.0693415,7.96630934 L46.0693415,15.514732 C46.0693415,17.413415 47.0109648,18.1234916 48.5391731,18.1234916 Z M55.3466463,18.1234916 C56.3500153,18.1234916 57.3070751,17.8456355 58.1097703,17.2590505 L58.1097703,16.3174273 C57.3070751,16.9348851 56.3500153,17.2436141 55.3466463,17.2436141 C53.6332006,17.2436141 52.4754671,16.1476263 52.3211026,14.5885452 L58.5883002,14.5885452 C58.6037366,14.4341807 58.6191731,14.2798162 58.6191731,14.1254518 C58.6191731,11.9334763 57.2298928,10.3126493 55.0379173,10.3126493 C52.7378867,10.3126493 51.3177336,12.0260949 51.3177336,14.2643798 C51.3177336,16.548974 52.9694334,18.1234916 55.3466463,18.1234916 Z M57.615804,13.8012864 L52.3365391,13.8012864 C52.4909035,12.3193874 53.4479633,11.1925268 55.0379173,11.1925268 C56.581562,11.1925268 57.5231853,12.3193874 57.615804,13.8012864 Z M61.5212251,18 L61.5212251,14.3569985 C61.5212251,12.3965697 62.8487596,11.2388361 64.3615314,11.3932006 L64.3615314,10.3126493 C63.0957427,10.3126493 62.0460643,11.0999081 61.5212251,12.3811332 L61.5212251,10.4361409 L60.5641654,10.4361409 L60.5641654,18 L61.5212251,18 Z M66.5998163,18 L66.5998163,14.2180704 C66.5998163,12.5354977 67.6494947,11.2388361 69.1622665,11.2388361 C70.6441654,11.2388361 71.4314242,12.1032772 71.4314242,13.8167228 L71.4314242,18 L72.3884839,18 L72.3884839,13.6777948 C72.3884839,11.717366 71.4005513,10.3126493 69.3938132,10.3126493 C68.1280245,10.3126493 67.109219,11.0535988 66.5998163,12.165023 L66.5998163,10.4361409 L65.6427565,10.4361409 L65.6427565,18 L66.5998163,18 Z M77.914732,18.1234916 C79.3040123,18.1234916 80.3845636,17.3979786 80.9248392,16.2556815 L80.9248392,18 L81.881899,18 L81.881899,10.4361409 L80.9248392,10.4361409 L80.9248392,12.1958959 C80.3845636,11.0535988 79.3040123,10.3126493 77.914732,10.3126493 C75.7073201,10.3126493 74.1328025,11.9643492 74.1328025,14.2489433 C74.1328025,16.4872282 75.7073201,18.1234916 77.914732,18.1234916 Z M78.0073507,17.2281776 C76.3093415,17.2281776 75.1207351,15.962389 75.1207351,14.2335069 C75.1207351,12.4891884 76.3093415,11.2233997 78.0073507,11.2233997 C79.7053599,11.2233997 80.9248392,12.4891884 80.9248392,14.2335069 C80.9248392,15.962389 79.7053599,17.2281776 78.0073507,17.2281776 Z M85.370536,18 L85.370536,6.42266462 L84.4134763,6.42266462 L84.4134763,18 L85.370536,18 Z M91.8384074,18 C95.450536,18 97.8431853,15.7462787 97.8431853,12.2113323 C97.8431853,8.67638591 95.4350996,6.42266462 91.8075345,6.42266462 L87.9175498,6.42266462 L87.9175498,18 L91.8384074,18 Z M91.9001532,17.1046861 L88.9209189,17.1046861 L88.9209189,7.33341501 L91.9001532,7.33341501 C94.9411333,7.33341501 96.8243798,9.20122511 96.8243798,12.2113323 C96.8243798,15.2214395 94.9411333,17.1046861 91.9001532,17.1046861 Z M102.921776,18.1234916 C104.311057,18.1234916 105.391608,17.3979786 105.931884,16.2556815 L105.931884,18 L106.888943,18 L106.888943,10.4361409 L105.931884,10.4361409 L105.931884,12.1958959 C105.391608,11.0535988 104.311057,10.3126493 102.921776,10.3126493 C100.714365,10.3126493 99.1398469,11.9643492 99.1398469,14.2489433 C99.1398469,16.4872282 100.714365,18.1234916 102.921776,18.1234916 Z M103.014395,17.2281776 C101.316386,17.2281776 100.12778,15.962389 100.12778,14.2335069 C100.12778,12.4891884 101.316386,11.2233997 103.014395,11.2233997 C104.712404,11.2233997 105.931884,12.4891884 105.931884,14.2335069 C105.931884,15.962389 104.712404,17.2281776 103.014395,17.2281776 Z M111.797734,18.1234916 C112.415191,18.1234916 113.171577,17.9536907 113.711853,17.5677795 L113.711853,16.6415926 C113.156141,17.0429403 112.476937,17.2127412 111.890352,17.2127412 C110.948729,17.2127412 110.269525,16.7496478 110.269525,15.5919142 L110.269525,11.3314548 L113.588361,11.3314548 L113.588361,10.4361409 L110.269525,10.4361409 L110.269525,7.96630934 L109.327902,7.96630934 L109.327902,15.514732 C109.327902,17.413415 110.269525,18.1234916 111.797734,18.1234916 Z M118.358224,18.1234916 C119.747504,18.1234916 120.828055,17.3979786 121.368331,16.2556815 L121.368331,18 L122.325391,18 L122.325391,10.4361409 L121.368331,10.4361409 L121.368331,12.1958959 C120.828055,11.0535988 119.747504,10.3126493 118.358224,10.3126493 C116.150812,10.3126493 114.576294,11.9643492 114.576294,14.2489433 C114.576294,16.4872282 116.150812,18.1234916 118.358224,18.1234916 Z M118.450842,17.2281776 C116.752833,17.2281776 115.564227,15.962389 115.564227,14.2335069 C115.564227,12.4891884 116.752833,11.2233997 118.450842,11.2233997 C120.148852,11.2233997 121.368331,12.4891884 121.368331,14.2335069 C121.368331,15.962389 120.148852,17.2281776 118.450842,17.2281776 Z M126.400613,18 L126.400613,14.5113629 L127.851639,14.5113629 C130.336907,14.5113629 132.158407,12.9368453 132.158407,10.4670138 C132.158407,8.01261868 130.352343,6.42266462 127.897948,6.42266462 L124.702603,6.42266462 L124.702603,18 L126.400613,18 Z M127.928821,12.9677182 L126.400613,12.9677182 L126.400613,7.96630934 L127.928821,7.96630934 C129.41072,7.96630934 130.398652,8.98511485 130.398652,10.4670138 C130.398652,11.9489127 129.41072,12.9677182 127.928821,12.9677182 Z M135.353752,18 L135.353752,6.42266462 L133.732925,6.42266462 L133.732925,18 L135.353752,18 Z M140.864564,18.138928 C141.883369,18.138928 142.778683,17.7067075 143.396141,16.965758 L143.396141,18 L145.032404,18 L145.032404,10.3126493 L143.396141,10.3126493 L143.396141,11.3777642 C142.778683,10.6213783 141.883369,10.1737213 140.864564,10.1737213 C138.626279,10.1737213 137.005452,11.8717305 137.005452,14.202634 C137.005452,16.4872282 138.626279,18.138928 140.864564,18.138928 Z M141.018928,16.6107198 C139.675957,16.6107198 138.688025,15.5919142 138.688025,14.1871975 C138.688025,12.751608 139.675957,11.717366 141.018928,11.717366 C142.392772,11.717366 143.396141,12.751608 143.396141,14.1871975 C143.396141,15.5919142 142.392772,16.6107198 141.018928,16.6107198 Z M149.894885,18.138928 C150.543216,18.138928 151.22242,18 151.762695,17.6295253 L151.762695,16.0704441 C151.206983,16.4254824 150.666708,16.5952833 150.04925,16.5952833 C149.323737,16.5952833 148.737152,16.240245 148.737152,15.2831853 L148.737152,11.8099847 L151.670077,11.8099847 L151.670077,10.3126493 L148.737152,10.3126493 L148.737152,7.96630934 L147.116325,7.96630934 L147.116325,15.1596937 C147.116325,17.3979786 148.166003,18.138928 149.894885,18.138928 Z M154.772803,18 L154.772803,11.8099847 L157.721164,11.8099847 L157.721164,10.3126493 L154.772803,10.3126493 L154.772803,9.18578867 C154.772803,8.35222052 155.313078,7.82738132 156.13121,7.82738132 C156.764104,7.82738132 157.366126,8.01261868 157.906401,8.39852986 L157.906401,6.79313936 C157.319816,6.42266462 156.656049,6.2837366 156.007718,6.2837366 C154.21709,6.2837366 153.151976,7.50321593 153.151976,9.2629709 L153.151976,18 L154.772803,18 Z M162.228607,18.138928 C164.544074,18.138928 166.226646,16.4563553 166.226646,14.1254518 C166.226646,11.8408576 164.544074,10.1737213 162.228607,10.1737213 C159.86683,10.1737213 158.137948,11.8408576 158.137948,14.1254518 C158.137948,16.4563553 159.86683,18.138928 162.228607,18.138928 Z M162.21317,16.6107198 C160.82389,16.6107198 159.820521,15.5764778 159.820521,14.1408882 C159.820521,12.7361715 160.82389,11.717366 162.21317,11.717366 C163.556141,11.717366 164.544074,12.7361715 164.544074,14.1408882 C164.544074,15.5764778 163.556141,16.6107198 162.21317,16.6107198 Z M169.483737,18 L169.483737,14.3724349 C169.483737,12.6126799 170.703216,11.7482389 172.185115,12.0260949 L172.185115,10.1737213 C171.027381,10.1737213 170.101195,10.7294334 169.483737,11.7482389 L169.483737,10.3126493 L167.86291,10.3126493 L167.86291,18 L169.483737,18 Z M174.886493,18 L174.886493,14.1408882 C174.886493,12.8287902 175.581133,11.7482389 176.707994,11.7482389 C177.788545,11.7482389 178.251639,12.442879 178.251639,13.6314855 L178.251639,18 L179.872466,18 L179.872466,14.1100153 C179.872466,12.8133538 180.567106,11.7482389 181.693966,11.7482389 C182.774518,11.7482389 183.237611,12.442879 183.237611,13.6314855 L183.237611,18 L184.858438,18 L184.858438,13.3536294 C184.858438,11.5475651 183.824196,10.1737213 182.033568,10.1737213 C180.891271,10.1737213 180.011394,10.6985605 179.455682,11.5012557 C179.008025,10.683124 178.236202,10.1737213 177.20196,10.1737213 C176.214028,10.1737213 175.426769,10.6059418 174.886493,11.3160184 L174.886493,10.3126493 L173.265666,10.3126493 L173.265666,18 L174.886493,18 Z" id="ExternalDataPlatform" fill="#FFFFFF" fill-rule="nonzero"></path>
                    <g id="logo">
                        <mask id="mask-2" fill="white">
                            <use xlink:href="#path-1"></use>
                        </mask>
                        <g id="Clip-2"></g>
                        <polygon id="Path" fill="#0075EA" mask="url(#mask-2)" points="0.00112894956 6.00206033 0 18.0016652 5.75933618 21.3274377 16.1514298 15.3283126 13.888902 14.0174893 5.76452935 18.7087263 2.26535019 16.6883582 2.26568887 7.30881945 12.6585727 1.30800096 10.3933354 0"></polygon>
                        <polygon id="Path" fill="#37D202" mask="url(#mask-2)" points="4.63106399 8.67213894 6.89641417 9.97968832 15.0163839 5.29138659 18.5156759 7.31164182 18.5152244 16.6910677 8.12200182 22.6915475 10.3880294 24 20.780123 17.9983912 20.7809132 5.99799611 15.021577 2.67256229"></polygon>
                        <path d="M4.6307253,14.0198601 L6.89088232,15.3245871 C9.97404357,13.5385889 13.0649946,11.7625255 16.1506395,9.98093016 L16.1506395,9.98093016 L13.888902,8.67529999 L4.6307253,14.0198601 Z" id="Path" fill="#525355" mask="url(#mask-2)"></path>
                    </g>
                </g>
            </g>
        </g>
    </g>
</svg>