<?xml version="1.0" encoding="UTF-8"?>
<svg width="84px" height="32px" viewBox="0 0 84 32" version="1.1" xmlns="http://www.w3.org/2000/svg" xmlns:xlink="http://www.w3.org/1999/xlink">
    <title>822D047E-B1DD-4E48-ACC2-D45151800C91</title>
    <g id="0.0-Login" stroke="none" stroke-width="1" fill="none" fill-rule="evenodd">
        <g id="1.0---Login---Default" transform="translate(-1234.000000, -48.000000)" fill-rule="nonzero">
            <g id="Login-Form" transform="translate(910.000000, 0.000000)">
                <g id="SCB-Logo" transform="translate(324.000000, 48.000000)">
                    <path d="M74.2293484,10.4463596 C74.3054958,10.4511144 75.1193201,10.8219911 75.2668555,10.8838039 L76.2948442,11.3355126 C76.4043059,11.3925706 76.5090085,11.435364 76.6375071,11.4876672 L77.6797734,11.9488856 C77.9129745,12.0534918 78.1366572,12.1580981 78.3793768,12.2579495 C78.6173371,12.3578009 78.8267422,12.4624071 79.0647025,12.5575037 L80.4496317,13.1708767 C80.5781303,13.2279346 80.5352975,13.2374443 80.778017,13.0900446 C81.3824363,12.7239227 81.5394901,12.7001486 82.158187,12.215156 L82.5484419,11.853789 C82.5769972,11.82526 82.5769972,11.82526 82.6007932,11.7919762 C83.309915,10.9456166 83.5478754,10.3037147 83.5478754,9.08172363 C83.5478754,8.44933135 83.3146742,7.8692422 83.0862323,7.45557207 C82.9577337,7.22258544 82.8054391,7.04190193 82.6388669,6.84695394 C82.3818697,6.54264487 82.1343909,6.33818722 81.8012465,6.11471025 C81.5870822,5.97206538 81.6251558,5.91500743 81.1301983,6.24784547 L74.8623229,10.0231798 C74.748102,10.0897474 74.6481586,10.1515602 74.5386969,10.2181278 C74.3816431,10.3084695 74.2579037,10.3465082 74.2293484,10.4463596 L74.2293484,10.4463596 Z M71.5784703,20.4410104 C71.5546742,20.4219911 71.5784703,20.4362556 71.5403966,20.4077266 C71.3833428,20.284101 71.3405099,20.31263 71.1215864,20.0986627 C71.1168272,20.0939079 71.112068,20.089153 71.112068,20.089153 C71.1073088,20.0843982 71.1025496,20.0796434 71.1025496,20.0748886 C71.0739943,20.0416048 71.0549575,20.0225854 71.0264023,19.9845468 C70.974051,19.9132244 70.9359773,19.8419019 70.9121813,19.7468053 C70.7741643,19.2047548 71.9020963,18.6912333 72.3399433,18.4344725 C72.5065156,18.3346211 73.1394901,17.9970282 73.2013598,17.9114413 L71.2215297,17.0508172 C71.0787535,16.9842496 70.950255,16.9414562 70.8169972,16.8701337 C70.6837394,16.8035661 70.56,16.7655275 70.4267422,16.6989599 L68.4373938,15.8240713 C68.0566572,15.638633 67.4189235,15.3961367 67.0524646,15.2154532 C67.0191501,15.2011887 66.9905949,15.1821694 66.9525212,15.1679049 C66.8763739,15.1393759 66.8668555,15.1488856 66.8478187,15.1679049 C66.7383569,15.3580981 66.486119,15.5245171 66.348102,16.0618128 C66.2529178,16.4421991 66.2481586,16.917682 66.3576204,17.2885587 C66.5479887,17.9637444 67.1476487,18.4297177 67.7187535,18.7197623 C68.4945042,19.1096582 69.7414164,19.6564636 70.5933144,20.0178306 C70.8836261,20.1367013 71.2881586,20.3554235 71.5784703,20.4410104 L71.5784703,20.4410104 Z" id="Shape" fill="#A4D09F"></path>
                    <path d="M66.7669122,5.05438336 C66.7145609,5.19702823 66.6050992,5.34918276 66.533711,5.52035661 C66.2957507,6.08142645 66.2814731,6.76136701 66.509915,7.30817236 C66.7669122,7.91679049 67.3998867,8.34947994 68.028102,8.64903418 C68.6658357,8.95334324 69.3511615,9.25289747 70.007932,9.53343239 C70.3410765,9.67607727 70.6599433,9.8282318 71.0026062,9.97087667 C71.2310482,10.0659733 71.8069122,10.3607727 72.0067989,10.3988113 C71.9020963,10.2609212 70.9359773,9.95185736 71.1406232,9.30044577 C71.273881,8.87251114 71.8307082,8.60148588 72.24,8.35423477 L75.5095751,6.32392273 C77.1277054,5.03536404 77.5703116,2.86716196 76.3519547,1.13640416 C76.3186402,1.08885587 76.2805666,1.04130758 76.2424929,0.989004458 L75.9569405,0.665676077 C75.9521813,0.660921248 75.9474221,0.656166419 75.9426629,0.656166419 L75.7475354,0.475482912 C75.6999433,0.427934621 75.6571105,0.404160475 75.6047592,0.361367013 L75.162153,0.0523031204 C75.024136,-0.0332838039 75.0669688,-3.06525638e-15 74.8480453,0.133135215 L74.3626062,0.423179792 C74.0247025,0.603863299 73.1870822,1.14591382 72.7873088,1.38365527 L66.7669122,5.05438336 Z M63.1784703,27.9203566 C63.1784703,28.467162 63.3735977,29.0662704 63.563966,29.4371471 C64.4586969,31.2154532 66.5241926,32.1616642 68.3184136,31.4389302 C68.3945609,31.4104012 68.4516714,31.3818722 68.5373371,31.3533432 C68.7705382,31.2725111 69.1274788,31.0680535 69.3511615,30.9444279 L73.2632295,28.4766716 C73.3346176,28.4338782 73.3869688,28.3863299 73.4583569,28.3673105 L73.0633428,28.1533432 C72.9396034,28.1010401 72.815864,28.0392273 72.6730878,27.9774146 C71.6974504,27.5732541 70.5266856,26.9836553 69.5605666,26.5890045 C69.432068,26.5367013 69.3035694,26.4748886 69.1750708,26.4130758 L68.0090652,25.8900446 C67.8948442,25.8424963 67.2761473,25.5524517 67.2190368,25.5524517 C67.1524079,25.5524517 65.0155241,26.8362556 64.7014164,27.0264487 L63.449745,27.7729569 C63.3735977,27.8157504 63.2546176,27.8965825 63.1784703,27.9203566 L63.1784703,27.9203566 Z M80.8827195,23.4650817 C80.93983,23.37474 80.9921813,23.3509658 81.0588102,23.2796434 C81.5109348,22.7708767 81.6489518,22.0956909 81.4538244,21.4300149 C81.0826062,20.1604755 79.3597734,19.6564636 78.1747309,19.1239227 C77.8511048,18.9812779 77.5274788,18.838633 77.1943343,18.6959881 C77.1229462,18.6627043 76.313881,18.2728083 76.2424929,18.310847 C76.5137677,18.448737 76.8231161,18.6959881 76.7755241,19.0526003 C76.7374504,19.3473997 76.3805099,19.6421991 76.1711048,19.7658247 L74.6053258,20.6644874 C74.5339377,20.702526 74.5529745,20.6644874 74.5291785,20.7500743 L76.1092351,21.4442793 C76.3805099,21.5726597 76.6375071,21.6677563 76.9087819,21.7961367 L80.7827762,23.51263 C80.9017564,23.5221397 80.8684419,23.5078752 80.8827195,23.4650817 L80.8827195,23.4650817 Z" id="Shape" fill="#77ADD2"></path>
                    <path d="M76.2472521,18.3060921 C76.3186402,18.2680535 77.1277054,18.6627043 77.1990935,18.6912333 C77.5274788,18.8338782 77.855864,18.976523 78.1794901,19.1191679 C79.3645326,19.6517088 81.0826062,20.1557207 81.4585836,21.42526 C81.653711,22.0909361 81.5156941,22.7661218 81.0635694,23.2748886 C80.9969405,23.3509658 80.93983,23.3699851 80.8874788,23.4603269 C80.9921813,23.4365527 81.3396034,23.208321 81.4443059,23.1369985 C82.2914448,22.566419 82.9149008,22.1289747 83.4288952,21.1780089 C84.1475354,19.8419019 84.1427762,17.8734027 83.3765439,16.5800892 C83.3146742,16.4754829 83.2813598,16.418425 83.2147309,16.3185736 C82.9434561,15.9144131 82.5865156,15.5387816 82.32,15.3153046 C82.3009632,15.3010401 82.296204,15.2962853 82.2819263,15.2820208 C82.2343343,15.2392273 82.205779,15.220208 82.1534278,15.1774146 C81.2634561,14.4594354 80.6114448,14.2216939 79.626289,13.7604755 C79.5168272,13.7081724 79.4216431,13.6796434 79.3121813,13.6273403 L78.0938244,13.0900446 C77.5369972,12.828529 76.8088385,12.5432392 76.2710482,12.2864785 C75.7522946,12.0392273 75.0003399,11.7301634 74.448272,11.4829123 L72.6254958,10.6793462 C72.5065156,10.6270431 72.4303683,10.5890045 72.3161473,10.5414562 C72.2685552,10.5224368 72.2209632,10.5034175 72.1733711,10.4748886 C72.1162606,10.4416048 72.0972238,10.4130758 72.0067989,10.4035661 C71.8069122,10.3655275 71.2310482,10.0754829 71.0026062,9.9756315 C70.6647025,9.8282318 70.3410765,9.6808321 70.007932,9.53818722 C69.3511615,9.2576523 68.6658357,8.95809807 68.028102,8.653789 C67.3951275,8.34947994 66.762153,7.91679049 66.509915,7.31292719 C66.2814731,6.76612184 66.2957507,6.09093611 66.533711,5.52511144 C66.6098584,5.34918276 66.7145609,5.19702823 66.7669122,5.05913819 C66.5051558,5.24457652 66.2814731,5.36344725 65.9911615,5.59643388 C65.8103116,5.73907875 65.4248159,6.07191679 65.2915581,6.23833581 C65.1583003,6.40950966 65.0678754,6.47607727 64.8822663,6.71857355 C64.6014731,7.09420505 64.4349008,7.43179792 64.2635694,7.85973254 C64.1303116,8.18781575 63.9494618,8.89153046 63.9494618,9.32897474 C63.9494618,9.49539376 63.9256657,9.55720654 63.9256657,9.72838039 C63.9256657,10.6888559 64.1969405,11.7111441 64.7870822,12.4338782 L65.082153,12.7952452 C65.1916147,12.9236256 65.3248725,13.0282318 65.4343343,13.1233284 C65.7912748,13.4371471 66.0435127,13.6273403 66.4623229,13.8793462 C66.809745,14.0885587 67.2285552,14.3215453 67.6092918,14.4879643 L70.7075354,15.8478455 C70.812238,15.8906389 70.9169405,15.9429421 71.0121246,15.9857355 L72.5445892,16.6561664 C72.7539943,16.751263 72.953881,16.8368499 73.1680453,16.9271917 C73.2679887,16.9652303 73.367932,17.0175334 73.4773938,17.0650817 L74.4054391,17.473997 C74.7147875,17.5976226 76.0949575,18.1967311 76.2472521,18.3060921 L76.2472521,18.3060921 Z M4.94957507,7.9833581 C4.94957507,8.36374443 5.03524079,8.71560178 5.19229462,9.02942051 C6.1584136,10.9456166 9.99433428,10.2514116 10.8652691,11.7539376 C11.0984703,12.1533432 11.0223229,12.7429421 10.8081586,13.132838 C10.4797734,13.7367013 9.58028329,13.9839525 8.84260623,13.9839525 C8.15252125,13.9839525 7.64804533,13.941159 7.04838527,13.6225854 C6.89609065,13.5417533 6.81042493,13.4704309 6.68668555,13.3753343 C6.25835694,13.0472511 6.0203966,12.4861813 5.98232295,11.9441308 C5.96328612,11.630312 6.18696884,11.7111441 4.73541076,11.7111441 C4.69733711,11.7111441 4.66402266,11.7254086 4.66402266,11.7586924 C4.66402266,12.5622585 4.87818697,13.2802377 5.32555241,13.8413076 C5.45405099,14.0029718 5.63014164,14.1931649 5.79195467,14.3120357 C6.25835694,14.663893 6.7866289,14.915899 7.36725212,15.0347697 C8.25246459,15.2154532 9.19954674,15.2344725 10.08,14.9824666 C10.6891785,14.8065379 10.9985269,14.6306092 11.4554108,14.2930163 C11.6029462,14.1836553 11.76,14.0077266 11.8694618,13.8650817 C11.9265722,13.7890045 11.9884419,13.7034175 12.0407932,13.6130758 C12.4310482,12.9046062 12.5119547,11.9679049 12.1692918,11.2166419 C12.0265156,10.8980684 11.8504249,10.6983655 11.6029462,10.4653789 C10.793881,9.71887073 9.20430595,9.51441308 8.22390935,9.26716196 C7.46243626,9.07221397 6.32974504,8.83922734 6.32974504,7.87875186 C6.32974504,6.02912333 9.1709915,6.0243685 10.0324079,6.85170877 C10.2132578,7.02763744 10.3465156,7.151263 10.470255,7.42704309 C10.5559207,7.62674591 10.6749008,7.9833581 10.6749008,8.25438336 L11.9932011,8.25438336 C11.9932011,8.00713224 11.9598867,7.75037147 11.9122946,7.53640416 C11.8075921,7.06567608 11.6933711,6.79465082 11.4316147,6.41901932 C11.3031161,6.23358098 11.2031728,6.1384844 11.046119,5.98157504 C10.9223796,5.85794948 10.7320113,5.73907875 10.5797167,5.648737 C9.6611898,5.09717682 8.34288952,5.05438336 7.30538244,5.28261516 C7.09121813,5.33016345 6.63433428,5.49182764 6.44396601,5.59643388 C6.28691218,5.6820208 6.10606232,5.78187221 5.96804533,5.89123328 C5.31603399,6.42377415 4.94957507,7.14650817 4.94957507,7.9833581 L4.94957507,7.9833581 Z M0,23.4413076 C0,24.1735513 0.0856657224,24.9057949 0.280793201,25.4858841 C0.380736544,25.7806835 0.461643059,25.9994056 0.590141643,26.2561664 C0.837620397,26.7506686 1.14220963,27.131055 1.53246459,27.492422 C1.69903683,27.6445765 1.83229462,27.7254086 2.00362606,27.8395245 C3.36951841,28.7381872 5.77767705,28.7334324 7.08169972,27.6778603 L7.36725212,27.4210996 C7.40532578,27.3878158 7.40532578,27.3925706 7.44339943,27.3545319 C8.10492918,26.6555721 8.46186969,25.7283804 8.56657224,24.7726597 C8.57609065,24.6728083 8.61416431,24.5872214 8.51898017,24.5872214 L7.20543909,24.5872214 C7.19592068,25.0531947 7.01507082,25.6903418 6.76759207,26.0992571 L6.3678187,26.6127786 C6.36305949,26.6175334 6.35830028,26.6222883 6.35354108,26.6222883 C6.21552408,26.7554235 6.12985836,26.8315007 5.95852691,26.9313522 C4.94005666,27.5447251 3.39331445,27.4020802 2.5223796,26.6080238 L2.41767705,26.5034175 C1.92747875,25.9661218 1.8227762,25.7188707 1.58957507,25.0341753 C1.28498584,24.1450223 1.31830028,22.7233284 1.6133711,21.8389302 C2.05121813,20.5313522 2.9411898,19.6612184 4.5498017,19.6612184 C4.90674221,19.6612184 5.27320113,19.7230312 5.54447592,19.8181278 C5.85858357,19.9274889 6.1584136,20.089153 6.37733711,20.2983655 L6.44872521,20.369688 C6.75331445,20.6454681 6.97699717,21.0781575 7.0721813,21.482318 C7.09121813,21.5679049 7.09597734,21.677266 7.18164306,21.677266 C8.70458924,21.677266 8.52373938,21.7723626 8.44283286,21.3777117 C8.41903683,21.2635958 8.39048159,21.1257058 8.35716714,21.0163447 C8.23342776,20.6169391 7.95263456,20.0463596 7.66708215,19.7610698 L7.58617564,19.6754829 C7.58141643,19.6707281 7.57665722,19.6659733 7.57665722,19.6612184 L7.51478754,19.5851412 C7.48623229,19.5518574 7.4909915,19.5566122 7.45291785,19.5280832 C7.24351275,19.366419 7.1388102,19.2237741 6.81994334,19.0573551 C5.90617564,18.5771174 5.36838527,18.4867756 4.31660057,18.4867756 C3.39331445,18.4867756 2.44147309,18.8433878 1.75614731,19.3759287 C1.35637394,19.6897474 1.07082153,20.0178306 0.809065156,20.4457652 C0.537790368,20.8927192 0.528271955,20.9592868 0.333144476,21.4490342 C0.128498584,21.9720654 0,22.8612184 0,23.4413076 L0,23.4413076 Z M33.1383569,11.5494799 C33.1383569,10.8077266 33.347762,9.98989599 33.7189802,9.57147103 C34.0949575,9.14829123 34.5328045,8.96760773 35.1562606,8.96760773 C35.8415864,8.96760773 36.3698584,9.24338782 36.6744476,9.6332838 C37.0123513,10.0659733 37.2217564,10.7459138 37.2217564,11.2879643 C37.2217564,11.8918276 37.2027195,12.4053492 36.9266856,12.9616642 C36.7553541,13.3040119 36.5126346,13.5940565 36.1747309,13.7842496 C35.6226629,14.0933135 34.7612465,14.0980684 34.2234561,13.7699851 C33.4477054,13.3040119 33.1383569,12.4338782 33.1383569,11.5494799 L33.1383569,11.5494799 Z M37.1979603,7.79791976 C37.1979603,7.87875186 37.1741643,7.8692422 37.1884419,8.00237741 L37.1979603,8.82971768 C37.098017,8.76315007 36.9409632,8.45408618 36.3746176,8.17355126 C35.5036827,7.73610698 34.3757507,7.77414562 33.5190935,8.20683507 C33.0526912,8.43982169 32.6862323,8.79167905 32.4197167,9.21961367 C32.1246459,9.69985141 31.9390368,10.1991085 31.8724079,10.7791976 L31.8200567,11.5732541 C31.8248159,11.6731055 31.8390935,11.658841 31.8438527,11.7586924 C31.8486119,11.82526 31.8390935,11.9013373 31.8438527,11.9679049 C31.8676487,12.2817236 31.9818697,12.7239227 32.0722946,13.0044577 C32.1865156,13.3420505 32.4339943,13.8175334 32.6671955,14.0980684 C33.5476487,15.1441308 35.1610198,15.4056464 36.3460623,14.8778603 C36.6411331,14.7447251 36.798187,14.6115899 37.0075921,14.3928678 C37.074221,14.3263001 37.1265722,14.2216939 37.1884419,14.1741456 L37.1836827,14.6401189 C37.1836827,14.6448737 37.1789235,14.692422 37.1789235,14.6971768 L37.1884419,14.9729569 L38.4305949,14.9729569 L38.4305949,5.47756315 C38.4305949,5.42526003 38.4163173,5.40624071 38.3592068,5.40624071 L37.1836827,5.40624071 L37.1979603,7.79791976 L37.1979603,7.79791976 Z M54.6832861,14.0124814 C54.0217564,14.0124814 53.76,13.9744428 53.2507649,13.5893016 C53.1413031,13.5084695 53.0841926,13.4323923 52.9985269,13.327786 C52.8367139,13.132838 52.7320113,12.9236256 52.6273088,12.6668648 C52.2894051,11.8300149 52.4369405,10.2846954 52.9652125,9.64754829 C53.1413031,9.43833581 53.2793201,9.29569094 53.5410765,9.16731055 C54.3025496,8.78692422 55.3828895,8.94858841 55.9444759,9.61426449 C56.268102,9.99465082 56.5155807,10.71263 56.5155807,11.2261516 C56.5155807,11.7872214 56.5393768,12.0820208 56.3537677,12.6383358 C56.1871955,13.1280832 55.9301983,13.5274889 55.4828329,13.7842496 C55.2972238,13.8793462 54.9640793,14.0124814 54.6832861,14.0124814 L54.6832861,14.0124814 Z M56.4870255,8.82971768 C56.4346742,8.79643388 56.2633428,8.57295691 56.1253258,8.46359584 C55.7017564,8.13551263 55.0545042,7.8692422 54.4691218,7.8692422 C53.783796,7.8692422 53.4030595,7.90728083 52.8081586,8.20683507 C51.827762,8.69658247 51.3090085,9.71887073 51.1662323,10.7839525 C50.8854391,12.8998514 51.8801133,15.1393759 54.3739377,15.1393759 C54.9973938,15.1393759 55.6969972,14.9539376 56.1158074,14.5830609 L56.4870255,14.1789004 L56.4870255,14.9777117 L57.7291785,14.9777117 L57.7291785,5.40624071 L56.4870255,5.40624071 L56.4870255,8.82971768 L56.4870255,8.82971768 Z M54.6832861,27.3069913 C54.2311615,27.3069913 53.9503683,27.3117385 53.5458357,27.0835067 C53.1032295,26.8362556 52.8033994,26.4463596 52.632068,25.9566122 C52.4226629,25.3479941 52.4512181,25.1530461 52.4512181,24.5396731 C52.4512181,23.7408618 52.8271955,22.8136701 53.5363173,22.4618128 C54.2977904,22.0814264 55.3781303,22.2430906 55.9397167,22.9087667 C56.2633428,23.289153 56.5108215,24.0071322 56.5108215,24.5206538 C56.5108215,25.0864785 56.5346176,25.3717682 56.3490085,25.932838 C56.1871955,26.4178306 55.9159207,26.8267459 55.4780737,27.0787519 C55.2972238,27.1786033 54.9593201,27.3069913 54.6832861,27.3069913 L54.6832861,27.3069913 Z M56.4870255,22.1242199 C56.4489518,22.0956909 56.2490652,21.8579495 56.1253258,21.7580981 C55.8112181,21.510847 55.5304249,21.3824666 55.1354108,21.2683507 C54.1454958,20.9878158 53.0794334,21.2208024 52.2894051,21.843685 C51.8134844,22.2193165 51.504136,22.8041605 51.3090085,23.3985141 C51.1995467,23.7218425 51.0853258,24.4826152 51.1329178,24.8725111 C51.1662323,25.1530461 51.113881,25.1102526 51.1995467,25.6523031 C51.2328612,25.8710253 51.3042493,26.1372957 51.3756374,26.322734 C51.5802833,26.8600297 51.8087252,27.240416 52.1894618,27.6208024 C52.2656091,27.6968796 52.3274788,27.7491828 52.4179037,27.8157504 L52.8033994,28.0630015 C53.046119,28.1961367 53.2793201,28.2864785 53.5743909,28.3482912 C54.3834561,28.5099554 55.1496884,28.4528975 55.8730878,28.0534918 C56.0349008,27.9631501 56.2966572,27.7349183 56.3966006,27.5922734 C56.4346742,27.5352155 56.4346742,27.5161961 56.4917847,27.4734027 L56.4917847,28.272214 L57.7339377,28.272214 L57.7339377,18.7007429 L56.4917847,18.7007429 L56.4917847,22.1242199 L56.4870255,22.1242199 Z M42.4092918,14.0124814 L42.0809065,14.0124814 C41.5335977,14.0124814 40.9767705,13.7034175 40.9767705,13.1661218 C40.9767705,12.7762259 41.0386402,12.4576523 41.3955807,12.2246657 C42.1094618,11.7491828 43.2611898,11.8918276 44.0464589,11.5922734 C44.1273654,11.5589896 44.1892351,11.520951 44.2653824,11.5066865 C44.2653824,12.3245171 44.393881,12.7619614 43.9369972,13.3610698 C43.6371671,13.746211 42.9470822,14.0124814 42.4092918,14.0124814 L42.4092918,14.0124814 Z M39.9202266,10.2609212 L41.1623796,10.2609212 C41.1623796,8.65854383 43.2516714,8.8820208 43.7894618,9.15780089 C44.2177904,9.37652303 44.255864,9.73789004 44.255864,10.1420505 C44.255864,10.3893016 44.0274221,10.5652303 43.8465722,10.6508172 C43.1564873,10.964636 41.3146742,10.8219911 40.2390935,11.68737 C39.9011898,11.9583952 39.653711,12.5289747 39.653711,12.9569094 C39.653711,13.5369985 39.6822663,13.9506686 40.0725212,14.4166419 L40.1629462,14.5117385 C40.6436261,14.9539376 41.171898,15.1346211 42,15.1346211 C42.5330312,15.1346211 42.989915,15.0205052 43.3611331,14.8540862 C43.5610198,14.7637444 43.7085552,14.6686478 43.8798867,14.5497771 C43.9179603,14.5212481 43.9512748,14.5069837 43.9893484,14.4736999 L44.3224929,14.1741456 C44.3510482,14.2977712 44.3605666,14.440416 44.4081586,14.5592868 C44.4557507,14.6734027 44.5176204,14.7780089 44.5985269,14.8635958 C44.8983569,15.1774146 45.4409065,15.191679 45.8359207,15.0775632 C45.912068,15.053789 45.9691785,15.0442793 46.0310482,15.0157504 C46.1024363,14.9824666 46.1309915,14.9491828 46.2023796,14.9301634 L46.2023796,13.9459138 C46.0024929,13.9649331 45.5360907,14.2169391 45.498017,13.7129272 L45.498017,12.0725111 C45.498017,11.3450223 45.498017,10.6175334 45.498017,9.89004458 C45.5027762,8.77741456 45.0030595,8.26864785 44.0988102,8.00713224 C43.2802266,7.76939079 41.8191501,7.82644874 41.0767139,8.24011887 C40.9624929,8.30193165 40.7864023,8.41129272 40.6912181,8.48736999 C40.181983,8.92481426 39.9202266,9.53343239 39.9202266,10.2609212 L39.9202266,10.2609212 Z M19.3128612,27.3069837 C18.917847,27.3069837 18.5704249,27.3164933 18.2325212,27.073997 C17.7613598,26.7364042 17.7946742,25.8995542 18.2991501,25.5191679 C18.3705382,25.4668648 18.594221,25.3622585 18.6941643,25.3289747 C18.8464589,25.2766716 19.0130312,25.238633 19.1796034,25.2053492 C19.769745,25.0864785 20.3646459,25.0959881 20.9690652,24.8820208 C21.0594901,24.848737 21.1118414,24.8154532 21.1879887,24.7964339 C21.1879887,25.2956909 21.264136,25.8852897 21.0737677,26.2989599 C20.9738244,26.5224368 20.7644193,26.7744428 20.5788102,26.907578 C20.4693484,26.9884101 20.3551275,27.0454681 20.2171105,27.1120357 C20.0029462,27.2166419 19.6269688,27.3069837 19.3128612,27.3069837 L19.3128612,27.3069837 Z M16.8523513,23.5554235 L18.0945042,23.5554235 C18.0945042,21.9245171 20.2266289,22.1860327 20.7406232,22.4618128 C21.1451558,22.6757801 21.1927479,23.0181278 21.1927479,23.4175334 C21.1927479,23.679049 20.9785836,23.8644874 20.7786969,23.9453195 C20.3503683,24.1164933 19.6935977,24.1687964 19.2033994,24.2496285 C18.4895184,24.3684993 17.6709348,24.5444279 17.1474221,25.0104012 C16.7000567,25.405052 16.5905949,25.9185736 16.5905949,26.517682 C16.5905949,27.2023774 16.8809065,27.6445765 17.2616431,27.9536404 C17.8613031,28.438633 18.9130878,28.5242199 19.6555241,28.3578009 C20.0362606,28.272214 20.2361473,28.1913819 20.5407365,28.0249629 C20.6454391,27.9679049 20.712068,27.9298663 20.8024929,27.8632987 L21.2593768,27.4781575 C21.3402833,28.4719168 22.2397734,28.5860327 22.944136,28.3197623 C23.0202833,28.2912333 23.0631161,28.2484398 23.1345042,28.2294205 L23.1345042,27.2451709 C22.944136,27.2594354 23.082153,27.3164933 22.6633428,27.3164933 C22.3587535,27.3164933 22.4301416,26.741159 22.4301416,26.4701337 L22.4301416,23.1655275 C22.4301416,22.7946508 22.3825496,22.5093611 22.2635694,22.2526003 C21.8019263,21.2350669 20.5645326,21.1732541 19.5888952,21.1732541 C18.8369405,21.1732541 18.0516714,21.4395245 17.6376204,21.7771174 C17.1759773,22.1527489 16.8523513,22.7138187 16.8523513,23.5554235 L16.8523513,23.5554235 Z M19.9696317,13.9887073 C19.5793768,13.9887073 19.2795467,13.9791976 18.9654391,13.77474 C18.4609632,13.4466568 18.4990368,12.5812779 19.0130312,12.215156 C19.6650425,11.7491828 20.988102,11.8442793 21.678187,11.5684993 C21.7543343,11.5352155 21.8257224,11.4971768 21.8971105,11.4829123 C21.8971105,11.8490342 21.9066289,12.2246657 21.8971105,12.5860327 C21.8923513,12.8808321 21.7067422,13.1803863 21.5592068,13.3515602 C21.2450992,13.7224368 20.6597167,13.9887073 19.9696317,13.9887073 L19.9696317,13.9887073 Z M17.5567139,10.2371471 L18.7988669,10.2371471 C18.8036261,10.0517088 18.8607365,9.79494799 18.9226062,9.65705795 C19.0796601,9.31946508 19.3366572,9.12927192 19.7078754,9.03417533 C20.4788669,8.83922734 21.9209065,8.83447251 21.9209065,10.0231798 C21.9209065,10.322734 21.7638527,10.4939079 21.5544476,10.5937593 C21.1403966,10.7982169 20.3741643,10.8362556 19.9553541,10.9218425 C18.9892351,11.1167905 17.9136544,11.2499257 17.4615297,12.2531947 C17.0950708,13.0662704 17.2997167,14.3405646 18.2658357,14.8255572 C19.0701416,15.2297177 20.2361473,15.1964339 21.0214164,14.8255572 C21.2926912,14.6971768 21.5496884,14.5402675 21.7733711,14.3358098 C21.8495184,14.2644874 21.9066289,14.1884101 21.9922946,14.1313522 C21.9922946,14.7019316 22.3635127,15.1156018 22.9298584,15.1156018 C23.3391501,15.1156018 23.52,15.0775632 23.8436261,14.9063893 L23.8436261,13.9221397 C23.6770538,13.9364042 23.7769972,13.9934621 23.3724646,13.9934621 C23.0726346,13.9934621 23.1392635,13.4038633 23.1392635,13.1280832 L23.1392635,9.79970282 C23.1392635,9.45735513 23.082153,9.10074294 22.9584136,8.87726597 C22.4539377,7.94056464 21.3593201,7.85497771 20.3932011,7.85497771 C19.6793201,7.85497771 18.9511615,8.02139673 18.3800567,8.44933135 C17.8279887,8.848737 17.5709915,9.55720654 17.5567139,10.2371471 L17.5567139,10.2371471 Z M35.6512181,22.2668648 C36.1604533,22.2668648 36.6458924,22.4570579 36.983796,22.789896 C37.2883853,23.0894502 37.5644193,23.6315007 37.5739377,24.0736999 L33.7713314,24.0736999 C33.8332011,23.9453195 33.8569972,22.8897474 34.8754674,22.4332838 C35.0896317,22.3381872 35.3418697,22.2668648 35.6512181,22.2668648 Z M32.4577904,24.7298663 C32.4577904,25.0056464 32.495864,25.2766716 32.5291785,25.5239227 C32.5958074,26.0089153 32.8242493,26.7173848 33.1193201,27.1167905 C33.2525779,27.297474 33.3430028,27.4306092 33.5095751,27.5970282 C33.7237394,27.8109955 34.037847,28.0059435 34.313881,28.1295691 C34.4185836,28.1771174 34.4899717,28.2104012 34.6184703,28.2484398 C34.727932,28.2817236 34.8469122,28.3150074 34.9706516,28.3435364 C36.0176771,28.5527489 36.983796,28.4053492 37.811898,27.7777117 C38.249745,27.4448737 38.5733711,26.8552749 38.7209065,26.3179792 C38.8065722,26.0089153 38.9017564,26.0897474 37.5977337,26.0897474 C37.488272,26.0897474 37.4977904,26.3037147 37.3597734,26.5319465 C37.1694051,26.8410104 36.9647592,27.0549777 36.6078187,27.1881129 C36.0843059,27.3878158 35.3751841,27.3355126 34.8707082,27.1263001 C34.1187535,26.8124814 33.7713314,26.0089153 33.7713314,25.2005944 L38.8160907,25.2005944 C38.9207932,25.2005944 38.9017564,24.9485884 38.8969972,24.8867756 C38.8684419,24.458841 38.8779603,24.1925706 38.754221,23.7123328 C38.6209632,23.179792 38.4924646,22.8992571 38.225949,22.4570579 C38.1688385,22.3619614 38.1069688,22.2906389 38.0355807,22.2002972 C37.9927479,22.1479941 37.9879887,22.1384844 37.9403966,22.0861813 C37.4168839,21.5346211 36.7267989,21.1637444 35.9272521,21.1637444 C35.2419263,21.1637444 34.842153,21.1970282 34.2377337,21.5156018 C33.071728,22.1242199 32.4577904,23.4270431 32.4577904,24.7298663 L32.4577904,24.7298663 Z M47.1018697,22.2668648 C47.6872521,22.2668648 48.0346742,22.4570579 48.4344476,22.789896 C48.7247592,23.0276374 49.01983,23.6647845 49.0293484,24.0736999 L45.2267422,24.0736999 C45.3076487,23.0894502 46.0453258,22.2668648 47.1018697,22.2668648 L47.1018697,22.2668648 Z M43.9084419,24.7298663 C43.9084419,26.0754829 44.4509915,27.5732541 45.7550142,28.1390788 C45.9691785,28.2294205 46.1690652,28.2959881 46.4165439,28.3435364 C47.3445892,28.5289747 48.3963739,28.4243685 49.1245326,27.8775632 C49.5956941,27.5257058 49.7813031,27.2309064 50.0192635,26.7316493 C50.0763739,26.6127786 50.0906516,26.5557207 50.1334844,26.4273403 C50.2715014,26.0279346 50.2286686,26.1182764 49.8003399,26.1182764 C49.5243059,26.1182764 49.2530312,26.1182764 48.9769972,26.1182764 C48.8627762,26.6127786 48.5153541,27.0169391 48.0346742,27.1928678 C47.2779603,27.4734027 46.1738244,27.3069837 45.6503116,26.6032689 L45.4551841,26.3037147 C45.4266289,26.2466568 45.4028329,26.1895988 45.3790368,26.1230312 C45.2600567,25.8187221 45.221983,25.5809807 45.221983,25.2005944 L50.2667422,25.2005944 C50.3809632,25.2005944 50.3381303,25.015156 50.3381303,24.7060921 C50.3381303,24.0213967 50.1334844,23.3414562 49.8526912,22.7756315 C49.5576204,22.1907875 49.2197167,21.8341753 48.6724079,21.5156018 C47.5064023,20.840416 45.6836261,21.120951 44.7698584,22.26211 C44.1987535,22.9705795 43.9084419,23.7598811 43.9084419,24.7298663 L43.9084419,24.7298663 Z M9.73733711,28.272214 L10.9794901,28.272214 L10.9794901,24.263893 C10.9794901,23.7551263 11.1888952,23.0751857 11.5886686,22.7375929 C11.5934278,22.732838 11.598187,22.7280832 11.6029462,22.7280832 C12.6023796,21.8912333 14.2633428,22.2193165 14.2633428,23.4413076 L14.2633428,28.272214 L15.5150142,28.272214 L15.5150142,23.4413076 C15.5150142,22.8659733 15.3484419,22.3096582 14.9962606,21.872214 C14.9677054,21.8389302 14.9677054,21.8341753 14.9343909,21.7913819 C14.7773371,21.6154532 14.5060623,21.4442793 14.2728612,21.3491828 C13.301983,20.9640416 11.7504816,21.1161961 11.0651558,22.0624071 L10.9842493,22.1717682 L10.9842493,18.7007429 L9.74209632,18.7007429 L9.74209632,28.272214 L9.73733711,28.272214 Z M26.0994901,8.97236256 L26.0994901,8.19732541 C26.0994901,8.097474 26.1232861,8.01188707 26.028102,8.01188707 L24.9715581,8.01188707 C24.9192068,8.01188707 24.90017,8.02615156 24.90017,8.08320951 L24.90017,14.9063893 C24.90017,14.9586924 24.9144476,14.9777117 24.9715581,14.9777117 L26.0994901,14.9777117 C26.189915,14.9777117 26.1708782,14.9016345 26.1708782,14.8160475 L26.1708782,11.0407132 C26.1708782,10.5081724 26.2850992,9.99940565 26.6182436,9.60950966 C27.408272,8.68231798 29.4594901,8.63952452 29.4594901,10.3132244 L29.4594901,14.9777117 L30.6968839,14.9777117 L30.6968839,10.3322437 C30.6968839,9.40029718 30.3684986,8.40653789 29.4499717,8.05943536 C28.5124079,7.70282318 27.1893484,7.80267459 26.442153,8.54442793 C26.2850992,8.7013373 26.2470255,8.77265973 26.1375637,8.92005944 L26.0994901,8.97236256 L26.0994901,8.97236256 Z M28.9121813,26.2323923 C28.9121813,26.6983655 29.0026062,27.2309064 29.2405666,27.5922734 C29.8116714,28.4528975 30.8396601,28.3673105 31.8010198,28.3673105 C31.8724079,28.3673105 31.8724079,28.2674591 31.8724079,28.1105498 L31.8676487,27.4068351 C31.8676487,27.3640416 31.8676487,27.4020802 31.8724079,27.3355126 C31.8771671,27.2451709 31.8676487,27.240416 31.8533711,27.1738484 C31.2251558,27.1738484 30.53983,27.3022288 30.2780737,26.7982169 C30.2114448,26.6650817 30.1638527,26.4606241 30.1638527,26.2561664 L30.1638527,22.4332838 L31.805779,22.4332838 C31.8581303,22.4332838 31.8771671,22.4190193 31.8771671,22.3619614 L31.8771671,21.3301634 L30.1638527,21.3301634 L30.1638527,19.2665676 L28.9216997,19.2665676 L28.9121813,26.2323923 L28.9121813,26.2323923 Z M16.4525779,8.02615156 L14.7725779,8.02139673 C14.7202266,7.85022288 14.7583003,6.30490342 14.7583003,5.9910847 L13.5399418,5.96731055 L13.5399418,12.5812779 C13.5399418,13.3420505 13.5351841,14.0219911 14.0491785,14.5355126 C14.1967139,14.6829123 14.3442493,14.8017831 14.5488952,14.8778603 C15.0914448,15.0775632 15.4245892,15.0680535 16.0004533,15.0680535 C16.5667989,15.0680535 16.4716147,15.1488856 16.4716147,14.7161961 C16.4716147,14.4356612 16.4716147,14.1551263 16.4716147,13.8698366 C15.9861756,13.8698366 15.3341643,13.941159 15.0486119,13.6986627 C14.7107082,13.4181278 14.7820963,12.93789 14.7820963,12.3435364 L14.7820963,9.12927192 C15.2532578,9.12927192 15.7196601,9.12451709 16.1908215,9.12927192 C16.3288385,9.12927192 16.4478187,9.16731055 16.4716147,9.05794948 L16.4716147,8.097474 C16.4620963,8.02615156 16.4811331,8.08320951 16.4525779,8.02615156 L16.4525779,8.02615156 Z M41.2575637,22.594948 L41.2575637,21.3063893 L40.0820397,21.3063893 L40.0820397,28.272214 L41.3241926,28.272214 C41.3241926,27.4591382 41.2766006,25.1197623 41.3717847,24.4493314 C41.4431728,23.9358098 41.5954674,23.484101 41.9286119,23.1037147 C42.114221,22.8897474 42.4045326,22.7138187 42.7043626,22.6139673 C42.8756941,22.5569094 43.0184703,22.5331352 43.2183569,22.4950966 C43.403966,22.4618128 43.656204,22.4998514 43.8084986,22.428529 L43.7847025,21.1637444 C43.3563739,21.1637444 43.0565439,21.1542348 42.6424929,21.3111441 C42.0904249,21.5203566 41.747762,21.8484398 41.4288952,22.3286776 C41.3955807,22.3762259 41.3670255,22.4142645 41.3432295,22.4570579 C41.3146742,22.5283804 41.3241926,22.5473997 41.2575637,22.594948 L41.2575637,22.594948 Z M25.3713314,22.594948 L25.3713314,21.3063893 L24.1958074,21.3063893 L24.1958074,28.272214 L25.4379603,28.272214 L25.4379603,25.1054978 C25.4379603,24.0879643 25.7377904,22.9705795 26.7848159,22.6282318 C27.132238,22.5141159 27.5367705,22.4618128 27.9032295,22.4570579 L27.9032295,21.1684993 C27.3987535,21.1684993 27.2654958,21.1494799 26.7610198,21.315899 C25.8567705,21.620208 25.4617564,22.5283804 25.3713314,22.594948 L25.3713314,22.594948 Z M48.4392068,9.30044577 L48.4392068,8.29242199 C48.4392068,7.92154532 48.6105382,8.01188707 47.2636827,8.01188707 L47.2636827,14.9777117 L48.4392068,14.9777117 C48.5534278,14.9777117 48.5105949,14.7589896 48.5105949,14.5307578 L48.5105949,11.9060921 C48.5105949,11.5114413 48.5248725,11.2641902 48.5867422,10.9265973 C48.7961473,9.78543834 49.6290085,9.16731055 50.7616997,9.18632987 C50.8664023,9.18632987 50.9711048,9.21485884 50.9711048,9.11500743 L50.9711048,7.87399703 C50.5427762,7.87399703 50.2429462,7.86448737 49.8288952,8.02139673 C49.6052125,8.10698366 49.4291218,8.20683507 49.2530312,8.33521545 C49.1245326,8.43031204 48.8960907,8.64903418 48.8009065,8.77265973 C48.7342776,8.85824666 48.6676487,8.93907875 48.6152975,9.02942051 L48.4820397,9.24814264 C48.4772805,9.25289747 48.4725212,9.2576523 48.4725212,9.26240713 C48.4296884,9.31471025 48.4725212,9.26240713 48.4392068,9.30044577 L48.4392068,9.30044577 Z" id="Shape" fill="#0071A9"></path>
                    <path d="M71.5784703,20.4410104 C71.2881586,20.3554235 70.8836261,20.1414562 70.5933144,20.0178306 C69.7414164,19.6564636 68.4945042,19.1049034 67.7187535,18.7197623 C67.1428895,18.4344725 66.5479887,17.9637444 66.3576204,17.2885587 C66.2529178,16.9129272 66.2529178,16.4421991 66.348102,16.0618128 C66.486119,15.5245171 66.7335977,15.3580981 66.8478187,15.1679049 C66.762153,15.1869242 66.7335977,15.2249629 66.6622096,15.2725111 C66.5908215,15.3200594 66.5479887,15.3438336 66.4766006,15.3913819 L65.7436827,15.8811293 C65.3534278,16.1711738 64.9488952,16.5230312 64.6585836,16.9081724 C64.0684419,17.7022288 63.8685552,18.3156018 63.7590935,19.33789 C63.6067989,20.7405646 64.0541643,22.0338782 64.967932,22.9468053 L65.1202266,23.0989599 C65.3391501,23.2939079 65.3439093,23.3224368 65.6056657,23.5268945 C66.2624363,24.0451709 67.1619263,24.515899 67.9233994,24.8439822 L79.2455524,29.8983655 L80.4258357,30.526003 C81.2824929,31.0157504 81.7013031,31.2820208 82.4675354,31.8383358 C82.5484419,31.8953938 82.5389235,31.9286776 82.6531445,31.9572065 C82.8101983,31.8430906 83.148102,31.2297177 83.2385269,31.0157504 C83.8286686,29.5607727 83.8905382,27.9821694 83.1243059,26.6555721 L82.2724079,25.5857355 C81.468102,24.8630015 81.0588102,24.6680535 80.1450425,24.2163447 L79.0837394,23.7503715 C78.9885552,23.7123328 78.9219263,23.679049 78.821983,23.6362556 C77.1705382,22.927786 75.3620397,22.0719168 73.7201133,21.3919762 C73.62017,21.3491828 73.5678187,21.3206538 73.4631161,21.2731055 L71.849745,20.564636 C71.7593201,20.5170877 71.6784136,20.4600297 71.5784703,20.4410104 L71.5784703,20.4410104 Z" id="Path" fill="#21A947"></path>
                    <path d="M16.4525779,8.02615156 C16.3669122,7.9833581 14.9201133,8.00713224 14.7868555,8.00713224 L14.7868555,6.03863299 C14.7725779,5.98157504 14.7868555,6.0243685 14.7630595,5.9910847 C14.7630595,6.30014859 14.7249858,7.84546805 14.7773371,8.02139673 L16.4525779,8.02615156 L16.4525779,8.02615156 Z" id="Path" fill="#00354E"></path>
                </g>
            </g>
        </g>
    </g>
</svg>