<?xml version="1.0" encoding="UTF-8"?>
<svg width="130px" height="48px" viewBox="0 0 130 48" version="1.1" xmlns="http://www.w3.org/2000/svg" xmlns:xlink="http://www.w3.org/1999/xlink">
    <title>Logo</title>
    <g id="0.0-Login" stroke="none" stroke-width="1" fill="none" fill-rule="evenodd">
        <g id="1.0---Login---Uplift" transform="translate(-1189.000000, -48.000000)" fill-rule="nonzero">
            <g id="Login-Form" transform="translate(910.000000, 0.000000)">
                <g id="Logo" transform="translate(279.000000, 48.000000)">
                    <g id="trustmark" transform="translate(0.214514, 0.343745)">
                        <path d="M22.9604814,46.2877646 L3.28170434,33.4683246 C3.28170434,33.4683246 0.813400553,32.0488603 0.248235485,29.4067611 C-0.545389494,25.6925134 2.06966987,22.5088725 2.06966987,22.5088725 L27.6103431,39.15191 C29.5806147,40.4370303 30.1181981,43.0655909 28.852041,45.048467 C27.5525777,47.0818523 24.878712,47.5317486 22.9604814,46.2877646 Z" id="Path" fill="#38D200"></path>
                        <path d="M4.31940153,19.7589857 C4.31940153,19.7589857 1.30466743,17.9364893 1.30466743,13.725481 C1.30466743,9.52696996 4.3178403,7.72894705 4.3178403,7.72894705 L15.0778338,0.683175809 C17.0483295,-0.568212872 19.6583565,0.000530902952 20.9303298,1.95847706 C22.202303,3.91642322 21.6622531,6.5339913 19.719369,7.82788257 L10.6517483,13.7358953 L26.1016751,23.8033657 C26.1016751,23.8033657 28.8827452,25.3983104 29.4322979,28.0893566 C30.19678,31.8436992 27.613986,34.936736 27.613986,34.936736 L4.31940153,19.7589857 Z" id="Path" fill="#0473EA"></path>
                        <path d="M24.5711498,9.53738423 C23.5605139,9.53738423 22.8418279,9.85606075 22.1403155,10.313247 L16.8883396,13.7358953 L22.1403155,17.1585436 C22.8485933,17.6146885 23.5917385,17.9338857 24.5711498,17.9338857 C26.8702013,17.908266 28.7204851,16.0361697 28.7204851,13.735635 C28.7204851,11.4351002 26.8702013,9.56300391 24.5711498,9.53738423" id="Path" fill="#38D200"></path>
                        <path d="M4.26736055,46.9683368 C5.27747601,46.9683368 5.99616198,46.6496603 6.69767442,46.1924741 L11.9501708,42.7698258 L6.69767442,39.3471774 C5.98939665,38.8910326 5.24677183,38.5718354 4.26736055,38.5718354 C2.7572092,38.5550069 1.354519,39.3514881 0.594546474,40.6573474 C-0.165426049,41.9632067 -0.165426049,43.5769655 0.594546474,44.8828248 C1.354519,46.1886842 2.7572092,46.9851653 4.26736055,46.9683368" id="Path" fill="#0473EA"></path>
                    </g>
                    <g id="wordmark" transform="translate(48.121047, 10.966227)" fill="#525355">
                        <path d="M5.18253852,25.5075312 C6.3357386,25.5075312 7.41075562,25.1946166 8.25122347,24.4710016 L8.25122347,26.0938299 C7.3130268,26.7396323 6.19891825,27.0134325 5.02617241,27.0134325 C2.07351445,27.0134325 0.0224568352,24.9599306 0.0224568352,22.0067993 C0.0224568352,19.0711447 2.13339934,17.0188911 5.06526394,17.0188911 C6.21846401,17.0188911 7.29348103,17.3517789 8.15349465,17.9967491 L8.15349465,19.7764508 C7.39120985,18.95505 6.3357386,18.5247925 5.16299276,18.5247925 C3.11068754,18.5247925 1.66430101,19.9524652 1.66430101,22.0059671 C1.66430101,24.059469 3.13023331,25.5075312 5.18253852,25.5075312 Z" id="Path"></path>
                        <path d="M11.5935491,26.8353375 L10.0103422,26.8353375 L10.0103422,14.1373307 L11.5931332,15.1164371 L11.5931332,18.8364587 C12.3167424,17.7217006 13.4699424,17.0188911 14.9354589,17.0188911 C17.3591336,17.0188911 18.649154,18.7985927 18.649154,21.1650092 L18.649154,26.8365859 L17.0464014,26.8365859 L17.0464014,21.4375611 C17.0464014,19.5600737 16.2258952,18.5626585 14.5445436,18.5626585 C12.7658791,18.5626585 11.5918856,20.088117 11.5918856,22.0047188 L11.5935491,26.8353375 Z" id="Path"></path>
                        <path d="M28.4806733,25.192536 C27.679297,26.3268514 26.4479139,27.011352 24.94289,27.011352 C22.1283,27.011352 20.1155022,24.9187358 20.1155022,22.0633903 C20.1155022,19.1506216 22.1283,17.0176428 24.94289,17.0176428 C26.4479139,17.0176428 27.679297,17.7217006 28.4806733,18.8755731 L28.4806733,17.1936572 L30.083426,17.1936572 L30.083426,26.8353375 L28.4806733,26.8353375 L28.4806733,25.192536 Z M21.7569305,22.0438331 C21.7569305,24.0386635 23.1450956,25.5054506 25.099672,25.5054506 C27.0733783,25.5054506 28.4806733,24.0386635 28.4806733,22.0438331 C28.4806733,20.0098884 27.0733783,18.5235442 25.099672,18.5235442 C23.1450956,18.5235442 21.7569305,20.0098884 21.7569305,22.0438331 Z" id="Shape"></path>
                        <path d="M34.1293991,26.8353375 L32.5461922,26.8353375 L32.5461922,17.1936572 L34.1293991,17.1936572 L34.1293991,19.2471591 C34.891268,17.8194864 36.123067,17.0188911 37.6472207,17.0188911 L37.6472207,18.8377071 C35.7342311,18.5639068 34.1293991,19.8546794 34.1293991,22.2406531 L34.1293991,26.8353375 Z" id="Path"></path>
                        <path d="M53.8702048,22.630548 L46.2669027,22.630548 C46.5014518,24.3711353 47.8696553,25.5250078 49.7851402,25.5250078 C51.0165233,25.5250078 52.2088149,25.1729789 53.2251946,24.4493639 L53.2251946,25.9748225 C52.1892691,26.6788803 51.0165233,27.011352 49.7851402,27.011352 C46.7555468,27.011352 44.5867987,25.0556359 44.5867987,22.1012563 C44.5867987,19.2067965 46.4241005,17.0163944 49.3364193,17.0163944 C52.1119178,17.0163944 53.9292627,19.0698963 53.9292627,21.827456 C53.9296117,22.0962521 53.9098723,22.3646982 53.8702048,22.630548 Z M46.2864484,21.3406075 L52.2479064,21.3406075 C52.0915403,19.697806 51.055199,18.4852616 49.3551334,18.4852616 C47.5960146,18.4844298 46.5405434,19.716531 46.2860326,21.3397753 L46.2864484,21.3406075 Z" id="Shape"></path>
                        <path d="M57.2512061,26.8353375 L55.6679993,26.8353375 L55.6679993,17.1936572 L57.2512061,17.1936572 L57.2512061,19.2471591 C58.0134909,17.8194864 59.2448741,17.0176428 60.7694437,17.0176428 L60.7694437,18.8364587 C58.8539588,18.5626585 57.2512061,19.8534311 57.2512061,22.2394047 L57.2512061,26.8353375 Z" id="Path"></path>
                        <path d="M70.1709561,22.630548 L62.5676539,22.630548 C62.8022031,24.3711353 64.1704066,25.5250078 66.0858915,25.5250078 C67.3172746,25.5250078 68.5095662,25.1729789 69.5259459,24.4493639 L69.5259459,25.9748225 C68.4900204,26.6788803 67.3172746,27.011352 66.0858915,27.011352 C63.056298,27.011352 60.88755,25.0556359 60.88755,22.1012563 C60.88755,19.2067965 62.7248518,17.0163944 65.6371706,17.0163944 C68.4126691,17.0163944 70.2304319,19.0698963 70.2304319,21.827456 C70.2308531,22.0962702 70.2109735,22.3647322 70.1709561,22.630548 Z M62.5871997,21.3406075 L68.5486577,21.3406075 C68.3922916,19.697806 67.3563661,18.4852616 65.6558846,18.4852616 C63.8967659,18.4844298 62.8412946,19.716531 62.5880314,21.3397753 L62.5871997,21.3406075 Z" id="Shape"></path>
                        <path d="M79.674772,25.1792205 C78.8929414,26.333093 77.6420125,27.0371508 76.1369887,27.0371508 C73.3223987,27.0371508 71.309185,24.9445346 71.309185,22.0891891 C71.309185,19.1764204 73.3223987,17.0438577 76.1369887,17.0438577 C77.6420125,17.0438577 78.8929414,17.7674726 79.674772,18.9409023 L79.674772,14.1398273 L81.2775246,15.1193498 L81.2775246,26.8345053 L79.674772,26.8345053 L79.674772,25.1792205 Z M72.9510291,22.070048 C72.9510291,24.0644623 74.3387784,25.5312494 76.2933548,25.5312494 C78.2674769,25.5312494 79.674772,24.0644623 79.674772,22.070048 C79.674772,20.0361033 78.2674769,18.5497591 76.2933548,18.5497591 C74.3387784,18.5497591 72.9510291,20.0361033 72.9510291,22.070048 L72.9510291,22.070048 Z" id="Shape"></path>
                        <path d="M40.413986,23.6300437 C40.413986,24.9794878 41.2349081,25.5075312 42.2708336,25.5075312 C43.0747556,25.514917 43.8605496,25.268558 44.5165171,24.8034734 L44.5165171,26.3484891 C43.8511294,26.8374181 42.9333102,27.0329897 42.1319339,27.0329897 C40.0796287,27.0329897 38.8286998,26.1138031 38.8286998,23.5127007 L38.8286998,14.1352501 L40.4119067,15.1143565 L40.413986,23.6300437 Z" id="Path"></path>
                        <path d="M42.9728176,17.0675759 C42.4063189,16.6998782 41.6491767,16.861306 41.2816932,17.4281351 C40.9142097,17.9949642 41.0755434,18.7525479 41.6420422,19.1202456 L41.6757275,19.1414672 C42.0772697,19.3986637 42.5916528,19.3986637 42.9931951,19.1414672 L44.5676688,18.1311526 L42.9728176,17.0675759 Z" id="Path"></path>
                        <path d="M3.32693855,11.6015575 C4.46059286,11.6015575 5.28151495,11.1126285 5.28151495,10.2325563 C5.28151495,9.70451291 5.00787425,9.29381253 4.28343338,9.00045512 L1.99616313,8.08126856 C0.823833158,7.57319848 0.178822947,6.90742279 0.178822947,5.6561806 C0.178822947,3.97426476 1.52748066,2.91817807 3.48205706,2.91817807 C4.61571137,2.91817807 5.67118262,3.23109265 6.41392165,3.79825032 L6.41392165,5.46268954 C5.53436227,4.68040311 4.45934526,4.23100452 3.50285042,4.23100452 C2.4864707,4.23100452 1.76327743,4.69996027 1.76327743,5.4822467 C1.76327743,6.06896153 2.03691813,6.42099043 2.79920292,6.71434784 L5.08647317,7.6335344 C6.3178563,8.16157775 6.88468346,8.90474986 6.88468346,9.94127939 C6.88468346,11.7796525 5.3992054,12.9139679 3.30822452,12.9139679 C2.03774986,12.9139679 0.884549786,12.561939 0.0440819358,11.9361098 L0.0440819358,10.2129991 C1.05838233,11.1713 2.19203664,11.6015575 3.32693855,11.6015575 Z" id="Path"></path>
                        <path d="M9.89306764,9.5089413 C9.89306764,10.8583854 10.7139897,11.3864288 11.7499152,11.3864288 C12.5545456,11.3942532 13.3411333,11.1478735 13.9976781,10.682371 L13.9976781,12.2273867 C13.3322904,12.7163157 12.4144712,12.9118873 11.6130949,12.9118873 C9.56078965,12.9118873 8.30986076,11.9927007 8.30986076,9.39159834 L8.30986076,0.986180242 L9.89306764,0.0062416471 L9.89306764,9.5089413 Z" id="Path"></path>
                        <path d="M22.8514933,11.0930713 C22.0505328,12.2273867 20.8191497,12.9118873 19.3141259,12.9118873 C16.49912,12.9118873 14.4863222,10.8192711 14.4863222,7.96392559 C14.4863222,5.05115694 16.49912,2.91817807 19.3141259,2.91817807 C20.8191497,2.91817807 22.0505328,3.62223587 22.8514933,4.77610836 L22.8514933,3.09419252 L24.4529983,3.09419252 L24.4529983,12.7358729 L22.8514933,12.7358729 L22.8514933,11.0930713 Z M16.1281663,7.94436843 C16.1281663,9.93919884 17.5159156,11.4059859 19.470492,11.4059859 C21.4446141,11.4059859 22.8514933,9.93919884 22.8514933,7.94436843 C22.8514933,5.9104237 21.4446141,4.42407947 19.470492,4.42407947 C17.5159156,4.42407947 16.1281663,5.90875926 16.1281663,7.94436843 Z" id="Shape"></path>
                        <path d="M28.5002191,12.7358729 L26.9170122,12.7358729 L26.9170122,3.09419252 L28.5002191,3.09419252 L28.5002191,4.73699404 C29.2234123,3.62223587 30.3766124,2.91817807 31.8425447,2.91817807 C34.2658036,2.91817807 35.5562399,4.69787972 35.5562399,7.06429619 L35.5562399,12.7358729 L33.9534872,12.7358729 L33.9534872,7.33809644 C33.9534872,5.46060899 33.1325651,4.46319379 31.4516294,4.46319379 C29.6729649,4.46319379 28.4989715,5.98865234 28.4989715,7.90525411 L28.5002191,12.7358729 Z" id="Path"></path>
                        <path d="M45.3873433,11.053957 C44.6059286,12.2078295 43.3549997,12.9118873 41.8499759,12.9118873 C39.0353859,12.9118873 37.0221722,10.8192711 37.0221722,7.96392559 C37.0221722,5.05115694 39.0353859,2.91817807 41.8499759,2.91817807 C43.3549997,2.91817807 44.6059286,3.64220914 45.3873433,4.81522268 L45.3873433,0.984931913 L46.9900959,0.00582553729 L46.9900959,12.7358729 L45.3873433,12.7358729 L45.3873433,11.053957 Z M38.6640163,7.94436843 C38.6640163,9.93919884 40.0517656,11.4059859 42.006342,11.4059859 C43.9804641,11.4059859 45.3873433,9.93919884 45.3873433,7.94436843 C45.3873433,5.9104237 43.9804641,4.42407947 42.006342,4.42407947 C40.0517656,4.42407947 38.6640163,5.90875926 38.6640163,7.94436843 L38.6640163,7.94436843 Z" id="Shape"></path>
                        <path d="M74.7059892,11.053957 C73.9245745,12.2078295 72.6736456,12.9118873 71.1686218,12.9118873 C68.3540318,12.9118873 66.3408181,10.8192711 66.3408181,7.96392559 C66.3408181,5.05115694 68.3540318,2.91817807 71.1686218,2.91817807 C72.6736456,2.91817807 73.9245745,3.64220914 74.7059892,4.81522268 L74.7059892,0.984931913 L76.3087419,0.00582553729 L76.3087419,12.7358729 L74.7059892,12.7358729 L74.7059892,11.053957 Z M67.9826623,7.94436843 C67.9826623,9.93919884 69.3704115,11.4059859 71.3249879,11.4059859 C73.2991101,11.4059859 74.7059892,9.93919884 74.7059892,7.94436843 C74.7059892,5.9104237 73.2991101,4.42407947 71.3249879,4.42407947 C69.3704115,4.42407947 67.9826623,5.90875926 67.9826623,7.94436843 L67.9826623,7.94436843 Z" id="Shape"></path>
                        <path d="M57.0757101,11.0930713 C56.2743338,12.2273867 55.0433665,12.9118873 53.5383427,12.9118873 C50.7233368,12.9118873 48.710539,10.8192711 48.710539,7.96392559 C48.710539,5.05115694 50.7233368,2.91817807 53.5383427,2.91817807 C55.0433665,2.91817807 56.2743338,3.62223587 57.0757101,4.77610836 L57.0757101,3.09419252 L58.6788786,3.09419252 L58.6788786,12.7358729 L57.076126,12.7358729 L57.0757101,11.0930713 Z M50.3519673,7.94436843 C50.3519673,9.93919884 51.7401324,11.4059859 53.6947088,11.4059859 C55.668831,11.4059859 57.0757101,9.93919884 57.0757101,7.94436843 C57.0757101,5.9104237 55.668831,4.42407947 53.6947088,4.42407947 C51.7401324,4.42407947 50.3519673,5.90875926 50.3519673,7.94436843 L50.3519673,7.94436843 Z" id="Shape"></path>
                        <path d="M62.7244359,12.7358729 L61.141229,12.7358729 L61.141229,3.09419252 L62.7244359,3.09419252 L62.7244359,5.14769442 C63.4867207,3.72002167 64.7181038,2.91817807 66.2426734,2.91817807 L66.2426734,4.73699404 C64.3271886,4.46319379 62.7244359,5.75396641 62.7244359,8.13994004 L62.7244359,12.7358729 Z" id="Path"></path>
                        <path d="M12.1250275,5.14894275 C12.4920467,5.38892586 12.9593926,5.41390341 13.3498727,5.21440523 C13.7403528,5.01490705 13.9941818,4.62147774 14.0151211,4.18328473 C14.0360605,3.74509171 13.8209043,3.32922547 13.4512284,3.0933603 L13.4175432,3.0721387 C13.0150489,2.81654336 12.5007862,2.81833003 12.1000755,3.07671591 L10.5276812,4.09119162 L12.1250275,5.14894275 Z" id="Path"></path>
                    </g>
                </g>
            </g>
        </g>
    </g>
</svg>