<?xml version="1.0" encoding="UTF-8"?>
<svg width="16px" height="16px" viewBox="0 0 16 16" version="1.1" xmlns="http://www.w3.org/2000/svg" xmlns:xlink="http://www.w3.org/1999/xlink">
    <title>207C58C9-4ED1-415F-B265-CE35AFE8DC96</title>
    <g id="2.0-License-Details" stroke="none" stroke-width="1" fill="none" fill-rule="evenodd">
        <g id="02.0.0---API-Detail---Overview" transform="translate(-56.000000, -116.000000)">
            <g id="Page-Header" transform="translate(0.000000, 56.000000)">
                <g id="Source-Icon" transform="translate(56.000000, 60.000000)">
                    <rect id="Rectangle" fill="#007AFF" x="0" y="0" width="16" height="16" rx="8"></rect>
                    <g id="Stack" transform="translate(4.428571, 4.428571)" fill="#FFFFFF">
                        <path d="M6.405,4.8971475 L7.05999799,5.21104344 C7.12919069,5.24423796 7.1592456,5.32911911 7.12712751,5.40063078 C7.11352205,5.43092365 7.09007053,5.45532753 7.06085377,5.4695959 L3.70411499,7.10890018 C3.61920583,7.15036661 3.52079355,7.15036661 3.43588438,7.10890018 L0.0791456086,5.4695959 C0.0101742626,5.4359129 -0.0193180552,5.35082122 0.0132726732,5.27953832 C0.0270783426,5.24934237 0.0506908585,5.22510488 0.0800013905,5.21104344 L0.734,4.8971475 L3.43588438,6.21640018 C3.49956626,6.2475 3.57084363,6.25527495 3.63832326,6.23972505 L3.70411499,6.21640018 L6.405,4.8971475 Z" id="Combined-Shape"></path>
                        <path d="M6.405,3.1121475 L7.05999799,3.42604344 C7.12919069,3.45923796 7.1592456,3.54411911 7.12712751,3.61563078 C7.11352205,3.64592365 7.09007053,3.67032753 7.06085377,3.6845959 L3.70411499,5.32390018 C3.61920583,5.36536661 3.52079355,5.36536661 3.43588438,5.32390018 L0.0791456086,3.6845959 C0.0101742626,3.6509129 -0.0193180552,3.56582122 0.0132726732,3.49453832 C0.0270783426,3.46434237 0.0506908585,3.44010488 0.0800013905,3.42604344 L0.734,3.1121475 L3.43588438,4.43140018 C3.49956626,4.4625 3.57084363,4.47027495 3.63832326,4.45472505 L3.70411499,4.43140018 L6.405,3.1121475 Z" id="Combined-Shape"></path>
                        <path d="M0.0800013905,1.64104344 L3.43782934,0.0301583724 C3.52164797,-0.0100527908 3.61835141,-0.0100527908 3.70217003,0.0301583724 L7.05999799,1.64104344 C7.12919069,1.67423796 7.1592456,1.75911911 7.12712751,1.83063078 C7.11352205,1.86092365 7.09007053,1.88532753 7.06085377,1.8995959 L3.70411499,3.53890018 C3.61920583,3.58036661 3.52079355,3.58036661 3.43588438,3.53890018 L0.0791456086,1.8995959 C0.0101742626,1.8659129 -0.0193180552,1.78082122 0.0132726732,1.70953832 C0.0270783426,1.67934237 0.0506908585,1.65510488 0.0800013905,1.64104344 Z" id="Rectangle"></path>
                    </g>
                </g>
            </g>
        </g>
    </g>
</svg>